<mxfile host="app.diagrams.net" modified="2024-06-03T14:37:35.011Z" agent="Mozilla/5.0 (Windows NT 10.0; Win64; x64) AppleWebKit/537.36 (KHTML, like Gecko) Chrome/125.0.0.0 Safari/537.36" etag="LIWY5dZXpOwWihljbJQw" version="24.0.7" type="device">
  <diagram id="C5RBs43oDa-KdzZeNtuy" name="Page-1">
    <mxGraphModel dx="1522" dy="702" grid="1" gridSize="10" guides="1" tooltips="1" connect="1" arrows="1" fold="1" page="1" pageScale="1" pageWidth="827" pageHeight="1169" math="0" shadow="0">
      <root>
        <mxCell id="WIyWlLk6GJQsqaUBKTNV-0" />
        <mxCell id="WIyWlLk6GJQsqaUBKTNV-1" parent="WIyWlLk6GJQsqaUBKTNV-0" />
        <mxCell id="m3dn8CbRQCBIX5Pan6xP-0" value="User" style="swimlane;fontStyle=0;align=center;verticalAlign=top;childLayout=stackLayout;horizontal=1;startSize=26;horizontalStack=0;resizeParent=1;resizeLast=0;collapsible=1;marginBottom=0;rounded=0;shadow=0;strokeWidth=1;" vertex="1" parent="WIyWlLk6GJQsqaUBKTNV-1">
          <mxGeometry x="460" y="440" width="160" height="308" as="geometry">
            <mxRectangle x="230" y="140" width="160" height="26" as="alternateBounds" />
          </mxGeometry>
        </mxCell>
        <mxCell id="m3dn8CbRQCBIX5Pan6xP-1" value="Id: int" style="text;align=left;verticalAlign=top;spacingLeft=4;spacingRight=4;overflow=hidden;rotatable=0;points=[[0,0.5],[1,0.5]];portConstraint=eastwest;" vertex="1" parent="m3dn8CbRQCBIX5Pan6xP-0">
          <mxGeometry y="26" width="160" height="30" as="geometry" />
        </mxCell>
        <mxCell id="m3dn8CbRQCBIX5Pan6xP-2" value="Name: string" style="text;align=left;verticalAlign=top;spacingLeft=4;spacingRight=4;overflow=hidden;rotatable=0;points=[[0,0.5],[1,0.5]];portConstraint=eastwest;rounded=0;shadow=0;html=0;" vertex="1" parent="m3dn8CbRQCBIX5Pan6xP-0">
          <mxGeometry y="56" width="160" height="30" as="geometry" />
        </mxCell>
        <mxCell id="m3dn8CbRQCBIX5Pan6xP-3" value="Login: string" style="text;align=left;verticalAlign=top;spacingLeft=4;spacingRight=4;overflow=hidden;rotatable=0;points=[[0,0.5],[1,0.5]];portConstraint=eastwest;rounded=0;shadow=0;html=0;" vertex="1" parent="m3dn8CbRQCBIX5Pan6xP-0">
          <mxGeometry y="86" width="160" height="30" as="geometry" />
        </mxCell>
        <mxCell id="m3dn8CbRQCBIX5Pan6xP-4" value="Password: string" style="text;align=left;verticalAlign=top;spacingLeft=4;spacingRight=4;overflow=hidden;rotatable=0;points=[[0,0.5],[1,0.5]];portConstraint=eastwest;rounded=0;shadow=0;html=0;" vertex="1" parent="m3dn8CbRQCBIX5Pan6xP-0">
          <mxGeometry y="116" width="160" height="32" as="geometry" />
        </mxCell>
        <mxCell id="m3dn8CbRQCBIX5Pan6xP-6" value="Email: string" style="text;align=left;verticalAlign=top;spacingLeft=4;spacingRight=4;overflow=hidden;rotatable=0;points=[[0,0.5],[1,0.5]];portConstraint=eastwest;rounded=0;shadow=0;html=0;" vertex="1" parent="m3dn8CbRQCBIX5Pan6xP-0">
          <mxGeometry y="148" width="160" height="32" as="geometry" />
        </mxCell>
        <mxCell id="m3dn8CbRQCBIX5Pan6xP-7" value="PhoneNumber: string" style="text;align=left;verticalAlign=top;spacingLeft=4;spacingRight=4;overflow=hidden;rotatable=0;points=[[0,0.5],[1,0.5]];portConstraint=eastwest;rounded=0;shadow=0;html=0;" vertex="1" parent="m3dn8CbRQCBIX5Pan6xP-0">
          <mxGeometry y="180" width="160" height="32" as="geometry" />
        </mxCell>
        <mxCell id="m3dn8CbRQCBIX5Pan6xP-8" value="Adress: string" style="text;align=left;verticalAlign=top;spacingLeft=4;spacingRight=4;overflow=hidden;rotatable=0;points=[[0,0.5],[1,0.5]];portConstraint=eastwest;rounded=0;shadow=0;html=0;" vertex="1" parent="m3dn8CbRQCBIX5Pan6xP-0">
          <mxGeometry y="212" width="160" height="32" as="geometry" />
        </mxCell>
        <mxCell id="m3dn8CbRQCBIX5Pan6xP-9" value="Members: List&lt;Member&gt;" style="text;align=left;verticalAlign=top;spacingLeft=4;spacingRight=4;overflow=hidden;rotatable=0;points=[[0,0.5],[1,0.5]];portConstraint=eastwest;rounded=0;shadow=0;html=0;" vertex="1" parent="m3dn8CbRQCBIX5Pan6xP-0">
          <mxGeometry y="244" width="160" height="32" as="geometry" />
        </mxCell>
        <mxCell id="m3dn8CbRQCBIX5Pan6xP-82" value="Invites: List&lt;Invite&gt;" style="text;align=left;verticalAlign=top;spacingLeft=4;spacingRight=4;overflow=hidden;rotatable=0;points=[[0,0.5],[1,0.5]];portConstraint=eastwest;rounded=0;shadow=0;html=0;" vertex="1" parent="m3dn8CbRQCBIX5Pan6xP-0">
          <mxGeometry y="276" width="160" height="32" as="geometry" />
        </mxCell>
        <mxCell id="m3dn8CbRQCBIX5Pan6xP-10" value="Member" style="swimlane;fontStyle=0;align=center;verticalAlign=top;childLayout=stackLayout;horizontal=1;startSize=26;horizontalStack=0;resizeParent=1;resizeLast=0;collapsible=1;marginBottom=0;rounded=0;shadow=0;strokeWidth=1;" vertex="1" parent="WIyWlLk6GJQsqaUBKTNV-1">
          <mxGeometry x="720" y="570" width="160" height="246" as="geometry">
            <mxRectangle x="230" y="140" width="160" height="26" as="alternateBounds" />
          </mxGeometry>
        </mxCell>
        <mxCell id="m3dn8CbRQCBIX5Pan6xP-11" value="Id: int" style="text;align=left;verticalAlign=top;spacingLeft=4;spacingRight=4;overflow=hidden;rotatable=0;points=[[0,0.5],[1,0.5]];portConstraint=eastwest;" vertex="1" parent="m3dn8CbRQCBIX5Pan6xP-10">
          <mxGeometry y="26" width="160" height="30" as="geometry" />
        </mxCell>
        <mxCell id="m3dn8CbRQCBIX5Pan6xP-13" value="UserId: int" style="text;align=left;verticalAlign=top;spacingLeft=4;spacingRight=4;overflow=hidden;rotatable=0;points=[[0,0.5],[1,0.5]];portConstraint=eastwest;rounded=0;shadow=0;html=0;" vertex="1" parent="m3dn8CbRQCBIX5Pan6xP-10">
          <mxGeometry y="56" width="160" height="30" as="geometry" />
        </mxCell>
        <mxCell id="m3dn8CbRQCBIX5Pan6xP-14" value="User: User" style="text;align=left;verticalAlign=top;spacingLeft=4;spacingRight=4;overflow=hidden;rotatable=0;points=[[0,0.5],[1,0.5]];portConstraint=eastwest;rounded=0;shadow=0;html=0;" vertex="1" parent="m3dn8CbRQCBIX5Pan6xP-10">
          <mxGeometry y="86" width="160" height="32" as="geometry" />
        </mxCell>
        <mxCell id="m3dn8CbRQCBIX5Pan6xP-15" value="GroupId: int" style="text;align=left;verticalAlign=top;spacingLeft=4;spacingRight=4;overflow=hidden;rotatable=0;points=[[0,0.5],[1,0.5]];portConstraint=eastwest;rounded=0;shadow=0;html=0;" vertex="1" parent="m3dn8CbRQCBIX5Pan6xP-10">
          <mxGeometry y="118" width="160" height="32" as="geometry" />
        </mxCell>
        <mxCell id="m3dn8CbRQCBIX5Pan6xP-16" value="Group: Group" style="text;align=left;verticalAlign=top;spacingLeft=4;spacingRight=4;overflow=hidden;rotatable=0;points=[[0,0.5],[1,0.5]];portConstraint=eastwest;rounded=0;shadow=0;html=0;" vertex="1" parent="m3dn8CbRQCBIX5Pan6xP-10">
          <mxGeometry y="150" width="160" height="32" as="geometry" />
        </mxCell>
        <mxCell id="m3dn8CbRQCBIX5Pan6xP-17" value="Role: string" style="text;align=left;verticalAlign=top;spacingLeft=4;spacingRight=4;overflow=hidden;rotatable=0;points=[[0,0.5],[1,0.5]];portConstraint=eastwest;rounded=0;shadow=0;html=0;" vertex="1" parent="m3dn8CbRQCBIX5Pan6xP-10">
          <mxGeometry y="182" width="160" height="32" as="geometry" />
        </mxCell>
        <mxCell id="m3dn8CbRQCBIX5Pan6xP-18" value="CanDo: string" style="text;align=left;verticalAlign=top;spacingLeft=4;spacingRight=4;overflow=hidden;rotatable=0;points=[[0,0.5],[1,0.5]];portConstraint=eastwest;rounded=0;shadow=0;html=0;" vertex="1" parent="m3dn8CbRQCBIX5Pan6xP-10">
          <mxGeometry y="214" width="160" height="32" as="geometry" />
        </mxCell>
        <mxCell id="m3dn8CbRQCBIX5Pan6xP-19" value="RIght" style="swimlane;fontStyle=0;align=center;verticalAlign=top;childLayout=stackLayout;horizontal=1;startSize=26;horizontalStack=0;resizeParent=1;resizeLast=0;collapsible=1;marginBottom=0;rounded=0;shadow=0;strokeWidth=1;" vertex="1" parent="WIyWlLk6GJQsqaUBKTNV-1">
          <mxGeometry x="720" y="200" width="160" height="86" as="geometry">
            <mxRectangle x="230" y="140" width="160" height="26" as="alternateBounds" />
          </mxGeometry>
        </mxCell>
        <mxCell id="m3dn8CbRQCBIX5Pan6xP-20" value="Id: int" style="text;align=left;verticalAlign=top;spacingLeft=4;spacingRight=4;overflow=hidden;rotatable=0;points=[[0,0.5],[1,0.5]];portConstraint=eastwest;" vertex="1" parent="m3dn8CbRQCBIX5Pan6xP-19">
          <mxGeometry y="26" width="160" height="30" as="geometry" />
        </mxCell>
        <mxCell id="m3dn8CbRQCBIX5Pan6xP-21" value="Name: string" style="text;align=left;verticalAlign=top;spacingLeft=4;spacingRight=4;overflow=hidden;rotatable=0;points=[[0,0.5],[1,0.5]];portConstraint=eastwest;rounded=0;shadow=0;html=0;" vertex="1" parent="m3dn8CbRQCBIX5Pan6xP-19">
          <mxGeometry y="56" width="160" height="30" as="geometry" />
        </mxCell>
        <mxCell id="m3dn8CbRQCBIX5Pan6xP-36" value="Meeting" style="swimlane;fontStyle=0;align=center;verticalAlign=top;childLayout=stackLayout;horizontal=1;startSize=26;horizontalStack=0;resizeParent=1;resizeLast=0;collapsible=1;marginBottom=0;rounded=0;shadow=0;strokeWidth=1;" vertex="1" parent="WIyWlLk6GJQsqaUBKTNV-1">
          <mxGeometry x="1241" y="250" width="160" height="244" as="geometry">
            <mxRectangle x="230" y="140" width="160" height="26" as="alternateBounds" />
          </mxGeometry>
        </mxCell>
        <mxCell id="m3dn8CbRQCBIX5Pan6xP-37" value="Id: int" style="text;align=left;verticalAlign=top;spacingLeft=4;spacingRight=4;overflow=hidden;rotatable=0;points=[[0,0.5],[1,0.5]];portConstraint=eastwest;" vertex="1" parent="m3dn8CbRQCBIX5Pan6xP-36">
          <mxGeometry y="26" width="160" height="30" as="geometry" />
        </mxCell>
        <mxCell id="m3dn8CbRQCBIX5Pan6xP-38" value="Name: string" style="text;align=left;verticalAlign=top;spacingLeft=4;spacingRight=4;overflow=hidden;rotatable=0;points=[[0,0.5],[1,0.5]];portConstraint=eastwest;rounded=0;shadow=0;html=0;" vertex="1" parent="m3dn8CbRQCBIX5Pan6xP-36">
          <mxGeometry y="56" width="160" height="30" as="geometry" />
        </mxCell>
        <mxCell id="m3dn8CbRQCBIX5Pan6xP-39" value="Description: string" style="text;align=left;verticalAlign=top;spacingLeft=4;spacingRight=4;overflow=hidden;rotatable=0;points=[[0,0.5],[1,0.5]];portConstraint=eastwest;rounded=0;shadow=0;html=0;" vertex="1" parent="m3dn8CbRQCBIX5Pan6xP-36">
          <mxGeometry y="86" width="160" height="30" as="geometry" />
        </mxCell>
        <mxCell id="m3dn8CbRQCBIX5Pan6xP-40" value="GroupId: int" style="text;align=left;verticalAlign=top;spacingLeft=4;spacingRight=4;overflow=hidden;rotatable=0;points=[[0,0.5],[1,0.5]];portConstraint=eastwest;rounded=0;shadow=0;html=0;" vertex="1" parent="m3dn8CbRQCBIX5Pan6xP-36">
          <mxGeometry y="116" width="160" height="32" as="geometry" />
        </mxCell>
        <mxCell id="m3dn8CbRQCBIX5Pan6xP-41" value="Group: Group" style="text;align=left;verticalAlign=top;spacingLeft=4;spacingRight=4;overflow=hidden;rotatable=0;points=[[0,0.5],[1,0.5]];portConstraint=eastwest;rounded=0;shadow=0;html=0;" vertex="1" parent="m3dn8CbRQCBIX5Pan6xP-36">
          <mxGeometry y="148" width="160" height="32" as="geometry" />
        </mxCell>
        <mxCell id="m3dn8CbRQCBIX5Pan6xP-42" value="Time: DateTime" style="text;align=left;verticalAlign=top;spacingLeft=4;spacingRight=4;overflow=hidden;rotatable=0;points=[[0,0.5],[1,0.5]];portConstraint=eastwest;rounded=0;shadow=0;html=0;" vertex="1" parent="m3dn8CbRQCBIX5Pan6xP-36">
          <mxGeometry y="180" width="160" height="32" as="geometry" />
        </mxCell>
        <mxCell id="m3dn8CbRQCBIX5Pan6xP-43" value="Place: string" style="text;align=left;verticalAlign=top;spacingLeft=4;spacingRight=4;overflow=hidden;rotatable=0;points=[[0,0.5],[1,0.5]];portConstraint=eastwest;rounded=0;shadow=0;html=0;" vertex="1" parent="m3dn8CbRQCBIX5Pan6xP-36">
          <mxGeometry y="212" width="160" height="32" as="geometry" />
        </mxCell>
        <mxCell id="m3dn8CbRQCBIX5Pan6xP-45" value="Invite" style="swimlane;fontStyle=0;align=center;verticalAlign=top;childLayout=stackLayout;horizontal=1;startSize=26;horizontalStack=0;resizeParent=1;resizeLast=0;collapsible=1;marginBottom=0;rounded=0;shadow=0;strokeWidth=1;" vertex="1" parent="WIyWlLk6GJQsqaUBKTNV-1">
          <mxGeometry x="720" y="350" width="160" height="182" as="geometry">
            <mxRectangle x="230" y="140" width="160" height="26" as="alternateBounds" />
          </mxGeometry>
        </mxCell>
        <mxCell id="m3dn8CbRQCBIX5Pan6xP-46" value="Id: int" style="text;align=left;verticalAlign=top;spacingLeft=4;spacingRight=4;overflow=hidden;rotatable=0;points=[[0,0.5],[1,0.5]];portConstraint=eastwest;" vertex="1" parent="m3dn8CbRQCBIX5Pan6xP-45">
          <mxGeometry y="26" width="160" height="30" as="geometry" />
        </mxCell>
        <mxCell id="m3dn8CbRQCBIX5Pan6xP-47" value="UserId: int" style="text;align=left;verticalAlign=top;spacingLeft=4;spacingRight=4;overflow=hidden;rotatable=0;points=[[0,0.5],[1,0.5]];portConstraint=eastwest;rounded=0;shadow=0;html=0;" vertex="1" parent="m3dn8CbRQCBIX5Pan6xP-45">
          <mxGeometry y="56" width="160" height="30" as="geometry" />
        </mxCell>
        <mxCell id="m3dn8CbRQCBIX5Pan6xP-48" value="User: User" style="text;align=left;verticalAlign=top;spacingLeft=4;spacingRight=4;overflow=hidden;rotatable=0;points=[[0,0.5],[1,0.5]];portConstraint=eastwest;rounded=0;shadow=0;html=0;" vertex="1" parent="m3dn8CbRQCBIX5Pan6xP-45">
          <mxGeometry y="86" width="160" height="32" as="geometry" />
        </mxCell>
        <mxCell id="m3dn8CbRQCBIX5Pan6xP-49" value="GroupId: int" style="text;align=left;verticalAlign=top;spacingLeft=4;spacingRight=4;overflow=hidden;rotatable=0;points=[[0,0.5],[1,0.5]];portConstraint=eastwest;rounded=0;shadow=0;html=0;" vertex="1" parent="m3dn8CbRQCBIX5Pan6xP-45">
          <mxGeometry y="118" width="160" height="32" as="geometry" />
        </mxCell>
        <mxCell id="m3dn8CbRQCBIX5Pan6xP-50" value="Group: Group" style="text;align=left;verticalAlign=top;spacingLeft=4;spacingRight=4;overflow=hidden;rotatable=0;points=[[0,0.5],[1,0.5]];portConstraint=eastwest;rounded=0;shadow=0;html=0;" vertex="1" parent="m3dn8CbRQCBIX5Pan6xP-45">
          <mxGeometry y="150" width="160" height="32" as="geometry" />
        </mxCell>
        <mxCell id="m3dn8CbRQCBIX5Pan6xP-53" value="Group" style="swimlane;fontStyle=0;align=center;verticalAlign=top;childLayout=stackLayout;horizontal=1;startSize=26;horizontalStack=0;resizeParent=1;resizeLast=0;collapsible=1;marginBottom=0;rounded=0;shadow=0;strokeWidth=1;" vertex="1" parent="WIyWlLk6GJQsqaUBKTNV-1">
          <mxGeometry x="980" y="470" width="160" height="214" as="geometry">
            <mxRectangle x="230" y="140" width="160" height="26" as="alternateBounds" />
          </mxGeometry>
        </mxCell>
        <mxCell id="m3dn8CbRQCBIX5Pan6xP-54" value="Id: int" style="text;align=left;verticalAlign=top;spacingLeft=4;spacingRight=4;overflow=hidden;rotatable=0;points=[[0,0.5],[1,0.5]];portConstraint=eastwest;" vertex="1" parent="m3dn8CbRQCBIX5Pan6xP-53">
          <mxGeometry y="26" width="160" height="30" as="geometry" />
        </mxCell>
        <mxCell id="m3dn8CbRQCBIX5Pan6xP-55" value="Name: string" style="text;align=left;verticalAlign=top;spacingLeft=4;spacingRight=4;overflow=hidden;rotatable=0;points=[[0,0.5],[1,0.5]];portConstraint=eastwest;rounded=0;shadow=0;html=0;" vertex="1" parent="m3dn8CbRQCBIX5Pan6xP-53">
          <mxGeometry y="56" width="160" height="30" as="geometry" />
        </mxCell>
        <mxCell id="m3dn8CbRQCBIX5Pan6xP-56" value="Members: List&lt;Member&gt;" style="text;align=left;verticalAlign=top;spacingLeft=4;spacingRight=4;overflow=hidden;rotatable=0;points=[[0,0.5],[1,0.5]];portConstraint=eastwest;rounded=0;shadow=0;html=0;" vertex="1" parent="m3dn8CbRQCBIX5Pan6xP-53">
          <mxGeometry y="86" width="160" height="32" as="geometry" />
        </mxCell>
        <mxCell id="m3dn8CbRQCBIX5Pan6xP-83" value="Invites: List&lt;Invite&gt;" style="text;align=left;verticalAlign=top;spacingLeft=4;spacingRight=4;overflow=hidden;rotatable=0;points=[[0,0.5],[1,0.5]];portConstraint=eastwest;rounded=0;shadow=0;html=0;" vertex="1" parent="m3dn8CbRQCBIX5Pan6xP-53">
          <mxGeometry y="118" width="160" height="32" as="geometry" />
        </mxCell>
        <mxCell id="m3dn8CbRQCBIX5Pan6xP-57" value="Meetings: List&lt;Meeting&gt;" style="text;align=left;verticalAlign=top;spacingLeft=4;spacingRight=4;overflow=hidden;rotatable=0;points=[[0,0.5],[1,0.5]];portConstraint=eastwest;rounded=0;shadow=0;html=0;" vertex="1" parent="m3dn8CbRQCBIX5Pan6xP-53">
          <mxGeometry y="150" width="160" height="32" as="geometry" />
        </mxCell>
        <mxCell id="m3dn8CbRQCBIX5Pan6xP-58" value="Deals: List&lt;Deal&gt;" style="text;align=left;verticalAlign=top;spacingLeft=4;spacingRight=4;overflow=hidden;rotatable=0;points=[[0,0.5],[1,0.5]];portConstraint=eastwest;rounded=0;shadow=0;html=0;" vertex="1" parent="m3dn8CbRQCBIX5Pan6xP-53">
          <mxGeometry y="182" width="160" height="32" as="geometry" />
        </mxCell>
        <mxCell id="m3dn8CbRQCBIX5Pan6xP-61" value="Deal" style="swimlane;fontStyle=0;align=center;verticalAlign=top;childLayout=stackLayout;horizontal=1;startSize=26;horizontalStack=0;resizeParent=1;resizeLast=0;collapsible=1;marginBottom=0;rounded=0;shadow=0;strokeWidth=1;" vertex="1" parent="WIyWlLk6GJQsqaUBKTNV-1">
          <mxGeometry x="1241" y="540" width="160" height="276" as="geometry">
            <mxRectangle x="230" y="140" width="160" height="26" as="alternateBounds" />
          </mxGeometry>
        </mxCell>
        <mxCell id="m3dn8CbRQCBIX5Pan6xP-62" value="Id: int" style="text;align=left;verticalAlign=top;spacingLeft=4;spacingRight=4;overflow=hidden;rotatable=0;points=[[0,0.5],[1,0.5]];portConstraint=eastwest;" vertex="1" parent="m3dn8CbRQCBIX5Pan6xP-61">
          <mxGeometry y="26" width="160" height="30" as="geometry" />
        </mxCell>
        <mxCell id="m3dn8CbRQCBIX5Pan6xP-63" value="Name: string" style="text;align=left;verticalAlign=top;spacingLeft=4;spacingRight=4;overflow=hidden;rotatable=0;points=[[0,0.5],[1,0.5]];portConstraint=eastwest;rounded=0;shadow=0;html=0;" vertex="1" parent="m3dn8CbRQCBIX5Pan6xP-61">
          <mxGeometry y="56" width="160" height="30" as="geometry" />
        </mxCell>
        <mxCell id="m3dn8CbRQCBIX5Pan6xP-64" value="Description: string" style="text;align=left;verticalAlign=top;spacingLeft=4;spacingRight=4;overflow=hidden;rotatable=0;points=[[0,0.5],[1,0.5]];portConstraint=eastwest;rounded=0;shadow=0;html=0;" vertex="1" parent="m3dn8CbRQCBIX5Pan6xP-61">
          <mxGeometry y="86" width="160" height="30" as="geometry" />
        </mxCell>
        <mxCell id="m3dn8CbRQCBIX5Pan6xP-65" value="GroupId: int" style="text;align=left;verticalAlign=top;spacingLeft=4;spacingRight=4;overflow=hidden;rotatable=0;points=[[0,0.5],[1,0.5]];portConstraint=eastwest;rounded=0;shadow=0;html=0;" vertex="1" parent="m3dn8CbRQCBIX5Pan6xP-61">
          <mxGeometry y="116" width="160" height="32" as="geometry" />
        </mxCell>
        <mxCell id="m3dn8CbRQCBIX5Pan6xP-66" value="Group: Group" style="text;align=left;verticalAlign=top;spacingLeft=4;spacingRight=4;overflow=hidden;rotatable=0;points=[[0,0.5],[1,0.5]];portConstraint=eastwest;rounded=0;shadow=0;html=0;" vertex="1" parent="m3dn8CbRQCBIX5Pan6xP-61">
          <mxGeometry y="148" width="160" height="32" as="geometry" />
        </mxCell>
        <mxCell id="m3dn8CbRQCBIX5Pan6xP-67" value="Time: DateTime" style="text;align=left;verticalAlign=top;spacingLeft=4;spacingRight=4;overflow=hidden;rotatable=0;points=[[0,0.5],[1,0.5]];portConstraint=eastwest;rounded=0;shadow=0;html=0;" vertex="1" parent="m3dn8CbRQCBIX5Pan6xP-61">
          <mxGeometry y="180" width="160" height="32" as="geometry" />
        </mxCell>
        <mxCell id="m3dn8CbRQCBIX5Pan6xP-68" value="Price: int" style="text;align=left;verticalAlign=top;spacingLeft=4;spacingRight=4;overflow=hidden;rotatable=0;points=[[0,0.5],[1,0.5]];portConstraint=eastwest;rounded=0;shadow=0;html=0;" vertex="1" parent="m3dn8CbRQCBIX5Pan6xP-61">
          <mxGeometry y="212" width="160" height="32" as="geometry" />
        </mxCell>
        <mxCell id="m3dn8CbRQCBIX5Pan6xP-69" value="Status: string" style="text;align=left;verticalAlign=top;spacingLeft=4;spacingRight=4;overflow=hidden;rotatable=0;points=[[0,0.5],[1,0.5]];portConstraint=eastwest;rounded=0;shadow=0;html=0;" vertex="1" parent="m3dn8CbRQCBIX5Pan6xP-61">
          <mxGeometry y="244" width="160" height="32" as="geometry" />
        </mxCell>
        <mxCell id="m3dn8CbRQCBIX5Pan6xP-70" value="CrmContext" style="swimlane;fontStyle=0;align=center;verticalAlign=top;childLayout=stackLayout;horizontal=1;startSize=26;horizontalStack=0;resizeParent=1;resizeLast=0;collapsible=1;marginBottom=0;rounded=0;shadow=0;strokeWidth=1;" vertex="1" parent="WIyWlLk6GJQsqaUBKTNV-1">
          <mxGeometry x="980" y="154" width="160" height="236" as="geometry">
            <mxRectangle x="230" y="140" width="160" height="26" as="alternateBounds" />
          </mxGeometry>
        </mxCell>
        <mxCell id="m3dn8CbRQCBIX5Pan6xP-71" value="Users: DbSet&lt;User&gt;" style="text;align=left;verticalAlign=top;spacingLeft=4;spacingRight=4;overflow=hidden;rotatable=0;points=[[0,0.5],[1,0.5]];portConstraint=eastwest;" vertex="1" parent="m3dn8CbRQCBIX5Pan6xP-70">
          <mxGeometry y="26" width="160" height="30" as="geometry" />
        </mxCell>
        <mxCell id="m3dn8CbRQCBIX5Pan6xP-76" value="Groups: DbSet&lt;Group&gt;" style="text;align=left;verticalAlign=top;spacingLeft=4;spacingRight=4;overflow=hidden;rotatable=0;points=[[0,0.5],[1,0.5]];portConstraint=eastwest;" vertex="1" parent="m3dn8CbRQCBIX5Pan6xP-70">
          <mxGeometry y="56" width="160" height="30" as="geometry" />
        </mxCell>
        <mxCell id="m3dn8CbRQCBIX5Pan6xP-77" value="Members: DbSet&lt;Member&gt;" style="text;align=left;verticalAlign=top;spacingLeft=4;spacingRight=4;overflow=hidden;rotatable=0;points=[[0,0.5],[1,0.5]];portConstraint=eastwest;" vertex="1" parent="m3dn8CbRQCBIX5Pan6xP-70">
          <mxGeometry y="86" width="160" height="30" as="geometry" />
        </mxCell>
        <mxCell id="m3dn8CbRQCBIX5Pan6xP-78" value="Meetings: DbSet&lt;Meeting&gt;" style="text;align=left;verticalAlign=top;spacingLeft=4;spacingRight=4;overflow=hidden;rotatable=0;points=[[0,0.5],[1,0.5]];portConstraint=eastwest;" vertex="1" parent="m3dn8CbRQCBIX5Pan6xP-70">
          <mxGeometry y="116" width="160" height="30" as="geometry" />
        </mxCell>
        <mxCell id="m3dn8CbRQCBIX5Pan6xP-79" value="Deals: DbSet&lt;Deal&gt;" style="text;align=left;verticalAlign=top;spacingLeft=4;spacingRight=4;overflow=hidden;rotatable=0;points=[[0,0.5],[1,0.5]];portConstraint=eastwest;" vertex="1" parent="m3dn8CbRQCBIX5Pan6xP-70">
          <mxGeometry y="146" width="160" height="30" as="geometry" />
        </mxCell>
        <mxCell id="m3dn8CbRQCBIX5Pan6xP-80" value="RIghts: DbSet&lt;Right&gt;" style="text;align=left;verticalAlign=top;spacingLeft=4;spacingRight=4;overflow=hidden;rotatable=0;points=[[0,0.5],[1,0.5]];portConstraint=eastwest;" vertex="1" parent="m3dn8CbRQCBIX5Pan6xP-70">
          <mxGeometry y="176" width="160" height="30" as="geometry" />
        </mxCell>
        <mxCell id="m3dn8CbRQCBIX5Pan6xP-81" value="Invites: DbSet&lt;Invite&gt;" style="text;align=left;verticalAlign=top;spacingLeft=4;spacingRight=4;overflow=hidden;rotatable=0;points=[[0,0.5],[1,0.5]];portConstraint=eastwest;" vertex="1" parent="m3dn8CbRQCBIX5Pan6xP-70">
          <mxGeometry y="206" width="160" height="30" as="geometry" />
        </mxCell>
        <mxCell id="m3dn8CbRQCBIX5Pan6xP-84" value="Use" style="endArrow=open;endSize=12;dashed=1;html=1;rounded=0;entryX=0;entryY=0.5;entryDx=0;entryDy=0;" edge="1" parent="WIyWlLk6GJQsqaUBKTNV-1">
          <mxGeometry width="160" relative="1" as="geometry">
            <mxPoint x="540" y="440" as="sourcePoint" />
            <mxPoint x="720" y="421" as="targetPoint" />
            <Array as="points">
              <mxPoint x="540" y="421" />
            </Array>
          </mxGeometry>
        </mxCell>
        <mxCell id="m3dn8CbRQCBIX5Pan6xP-85" value="Use" style="endArrow=open;endSize=12;dashed=1;html=1;rounded=0;entryX=-0.006;entryY=0.156;entryDx=0;entryDy=0;entryPerimeter=0;exitX=0.5;exitY=1.063;exitDx=0;exitDy=0;exitPerimeter=0;" edge="1" parent="WIyWlLk6GJQsqaUBKTNV-1" source="m3dn8CbRQCBIX5Pan6xP-82" target="m3dn8CbRQCBIX5Pan6xP-18">
          <mxGeometry width="160" relative="1" as="geometry">
            <mxPoint x="500" y="780" as="sourcePoint" />
            <mxPoint x="710" y="780" as="targetPoint" />
            <Array as="points">
              <mxPoint x="540" y="790" />
            </Array>
          </mxGeometry>
        </mxCell>
        <mxCell id="m3dn8CbRQCBIX5Pan6xP-86" value="Use" style="endArrow=open;endSize=12;dashed=1;html=1;rounded=0;exitX=0.25;exitY=0;exitDx=0;exitDy=0;entryX=1;entryY=0.5;entryDx=0;entryDy=0;" edge="1" parent="WIyWlLk6GJQsqaUBKTNV-1" source="m3dn8CbRQCBIX5Pan6xP-53" target="m3dn8CbRQCBIX5Pan6xP-47">
          <mxGeometry width="160" relative="1" as="geometry">
            <mxPoint x="550" y="450" as="sourcePoint" />
            <mxPoint x="900" y="420" as="targetPoint" />
            <Array as="points">
              <mxPoint x="1020" y="421" />
            </Array>
          </mxGeometry>
        </mxCell>
        <mxCell id="m3dn8CbRQCBIX5Pan6xP-87" value="Use" style="endArrow=open;endSize=12;dashed=1;html=1;rounded=0;exitX=0.219;exitY=1;exitDx=0;exitDy=0;exitPerimeter=0;" edge="1" parent="WIyWlLk6GJQsqaUBKTNV-1" source="m3dn8CbRQCBIX5Pan6xP-58">
          <mxGeometry width="160" relative="1" as="geometry">
            <mxPoint x="1016" y="690" as="sourcePoint" />
            <mxPoint x="880" y="788" as="targetPoint" />
            <Array as="points">
              <mxPoint x="1015" y="788" />
            </Array>
          </mxGeometry>
        </mxCell>
        <mxCell id="m3dn8CbRQCBIX5Pan6xP-88" value="Use" style="endArrow=open;endSize=12;dashed=1;html=1;rounded=0;exitX=0.25;exitY=0;exitDx=0;exitDy=0;" edge="1" parent="WIyWlLk6GJQsqaUBKTNV-1">
          <mxGeometry width="160" relative="1" as="geometry">
            <mxPoint x="1100" y="465.5" as="sourcePoint" />
            <mxPoint x="1240" y="420" as="targetPoint" />
            <Array as="points">
              <mxPoint x="1100" y="420" />
            </Array>
          </mxGeometry>
        </mxCell>
        <mxCell id="m3dn8CbRQCBIX5Pan6xP-89" value="Use" style="endArrow=open;endSize=12;dashed=1;html=1;rounded=0;exitX=0.688;exitY=1.063;exitDx=0;exitDy=0;exitPerimeter=0;entryX=0.006;entryY=0.125;entryDx=0;entryDy=0;entryPerimeter=0;" edge="1" parent="WIyWlLk6GJQsqaUBKTNV-1" target="m3dn8CbRQCBIX5Pan6xP-69">
          <mxGeometry width="160" relative="1" as="geometry">
            <mxPoint x="1091.04" y="689.9960000000001" as="sourcePoint" />
            <mxPoint x="1241" y="783.98" as="targetPoint" />
            <Array as="points">
              <mxPoint x="1091" y="790" />
            </Array>
          </mxGeometry>
        </mxCell>
      </root>
    </mxGraphModel>
  </diagram>
</mxfile>
